<svg width="144" height="79" viewBox="0 0 144 79" fill="none" xmlns="http://www.w3.org/2000/svg">
<rect width="144" height="79" fill="#027F6D"/>
<path d="M16.9635 52.825H18.296V60H16.9635V52.825ZM23.2194 54.465C23.9096 54.465 24.4631 54.6666 24.8799 55.0697C25.2968 55.4729 25.5052 56.0708 25.5052 56.8635V60H24.2239V57.0275C24.2239 56.5492 24.1112 56.1904 23.8857 55.9512C23.6602 55.7052 23.339 55.5822 22.9222 55.5822C22.4507 55.5822 22.0783 55.7257 21.8049 56.0127C21.5316 56.2929 21.3949 56.6995 21.3949 57.2325V60H20.1137V54.5265H21.3334V55.2337C21.5453 54.9809 21.8118 54.7896 22.1329 54.6597C22.4541 54.5299 22.8163 54.465 23.2194 54.465ZM32.5413 52.3945V60H31.3113V59.2927C31.0995 59.5524 30.8364 59.7472 30.5221 59.877C30.2146 60.0068 29.8729 60.0718 29.4971 60.0718C28.9709 60.0718 28.496 59.9556 28.0723 59.7232C27.6555 59.4909 27.3275 59.1629 27.0883 58.7392C26.8492 58.3087 26.7296 57.8167 26.7296 57.2632C26.7296 56.7097 26.8492 56.2212 27.0883 55.7975C27.3275 55.3738 27.6555 55.0458 28.0723 54.8135C28.496 54.5812 28.9709 54.465 29.4971 54.465C29.8593 54.465 30.1907 54.5265 30.4913 54.6495C30.792 54.7725 31.0483 54.957 31.2601 55.203V52.3945H32.5413ZM29.6508 58.975C29.9583 58.975 30.2351 58.9067 30.4811 58.77C30.7271 58.6265 30.9218 58.4249 31.0653 58.1652C31.2088 57.9056 31.2806 57.6049 31.2806 57.2632C31.2806 56.9216 31.2088 56.6209 31.0653 56.3612C30.9218 56.1016 30.7271 55.9034 30.4811 55.7667C30.2351 55.6232 29.9583 55.5515 29.6508 55.5515C29.3433 55.5515 29.0666 55.6232 28.8206 55.7667C28.5746 55.9034 28.3798 56.1016 28.2363 56.3612C28.0928 56.6209 28.0211 56.9216 28.0211 57.2632C28.0211 57.6049 28.0928 57.9056 28.2363 58.1652C28.3798 58.4249 28.5746 58.6265 28.8206 58.77C29.0666 58.9067 29.3433 58.975 29.6508 58.975ZM39.363 57.294C39.363 57.3828 39.3561 57.5092 39.3425 57.6732H35.0477C35.1229 58.0764 35.3176 58.3976 35.632 58.6367C35.9531 58.8691 36.3495 58.9852 36.821 58.9852C37.4223 58.9852 37.9177 58.7871 38.3072 58.3907L38.994 59.18C38.748 59.4738 38.437 59.6959 38.0612 59.8462C37.6854 59.9966 37.2617 60.0718 36.7902 60.0718C36.1889 60.0718 35.6593 59.9522 35.2015 59.713C34.7436 59.4738 34.3883 59.1424 34.1355 58.7188C33.8895 58.2882 33.7665 57.8031 33.7665 57.2632C33.7665 56.7302 33.886 56.2519 34.1252 55.8282C34.3712 55.3977 34.7095 55.0629 35.14 54.8238C35.5705 54.5846 36.0556 54.465 36.5955 54.465C37.1285 54.465 37.6034 54.5846 38.0202 54.8238C38.4439 55.0561 38.7719 55.3875 39.0042 55.818C39.2434 56.2417 39.363 56.7337 39.363 57.294ZM36.5955 55.49C36.1855 55.49 35.837 55.613 35.55 55.859C35.2698 56.0982 35.099 56.4193 35.0375 56.8225H38.1432C38.0885 56.4262 37.9211 56.105 37.641 55.859C37.3608 55.613 37.0123 55.49 36.5955 55.49ZM43.6277 54.465C44.1607 54.465 44.6356 54.5812 45.0524 54.8135C45.4761 55.0458 45.8075 55.3738 46.0467 55.7975C46.2858 56.2212 46.4054 56.7097 46.4054 57.2632C46.4054 57.8167 46.2858 58.3087 46.0467 58.7392C45.8075 59.1629 45.4761 59.4909 45.0524 59.7232C44.6356 59.9556 44.1607 60.0718 43.6277 60.0718C42.8897 60.0718 42.3054 59.8257 41.8749 59.3337V61.9885H40.5937V54.5265H41.8134V55.244C42.0253 54.9843 42.2849 54.7896 42.5924 54.6597C42.9068 54.5299 43.2518 54.465 43.6277 54.465ZM43.4842 58.975C43.9557 58.975 44.3418 58.8178 44.6424 58.5035C44.9499 58.1892 45.1037 57.7757 45.1037 57.2632C45.1037 56.7507 44.9499 56.3373 44.6424 56.023C44.3418 55.7087 43.9557 55.5515 43.4842 55.5515C43.1767 55.5515 42.8999 55.6232 42.6539 55.7667C42.4079 55.9034 42.2132 56.1016 42.0697 56.3612C41.9262 56.6209 41.8544 56.9216 41.8544 57.2632C41.8544 57.6049 41.9262 57.9056 42.0697 58.1652C42.2132 58.4249 42.4079 58.6265 42.6539 58.77C42.8999 58.9067 43.1767 58.975 43.4842 58.975ZM52.766 57.294C52.766 57.3828 52.7592 57.5092 52.7455 57.6732H48.4508C48.5259 58.0764 48.7207 58.3976 49.035 58.6367C49.3562 58.8691 49.7525 58.9852 50.224 58.9852C50.8254 58.9852 51.3208 58.7871 51.7103 58.3907L52.397 59.18C52.151 59.4738 51.8401 59.6959 51.4643 59.8462C51.0884 59.9966 50.6648 60.0718 50.1933 60.0718C49.5919 60.0718 49.0624 59.9522 48.6045 59.713C48.1467 59.4738 47.7914 59.1424 47.5385 58.7188C47.2925 58.2882 47.1695 57.8031 47.1695 57.2632C47.1695 56.7302 47.2891 56.2519 47.5283 55.8282C47.7743 55.3977 48.1125 55.0629 48.543 54.8238C48.9735 54.5846 49.4587 54.465 49.9985 54.465C50.5315 54.465 51.0064 54.5846 51.4233 54.8238C51.8469 55.0561 52.1749 55.3875 52.4073 55.818C52.6464 56.2417 52.766 56.7337 52.766 57.294ZM49.9985 55.49C49.5885 55.49 49.24 55.613 48.953 55.859C48.6729 56.0982 48.502 56.4193 48.4405 56.8225H51.5463C51.4916 56.4262 51.3242 56.105 51.044 55.859C50.7639 55.613 50.4154 55.49 49.9985 55.49ZM57.1025 54.465C57.7927 54.465 58.3462 54.6666 58.763 55.0697C59.1798 55.4729 59.3883 56.0708 59.3883 56.8635V60H58.107V57.0275C58.107 56.5492 57.9943 56.1904 57.7688 55.9512C57.5433 55.7052 57.2221 55.5822 56.8053 55.5822C56.3338 55.5822 55.9613 55.7257 55.688 56.0127C55.4147 56.2929 55.278 56.6995 55.278 57.2325V60H53.9968V54.5265H55.2165V55.2337C55.4283 54.9809 55.6948 54.7896 56.016 54.6597C56.3372 54.5299 56.6993 54.465 57.1025 54.465ZM66.4244 52.3945V60H65.1944V59.2927C64.9826 59.5524 64.7195 59.7472 64.4051 59.877C64.0976 60.0068 63.756 60.0718 63.3801 60.0718C62.854 60.0718 62.3791 59.9556 61.9554 59.7232C61.5386 59.4909 61.2106 59.1629 60.9714 58.7392C60.7322 58.3087 60.6126 57.8167 60.6126 57.2632C60.6126 56.7097 60.7322 56.2212 60.9714 55.7975C61.2106 55.3738 61.5386 55.0458 61.9554 54.8135C62.3791 54.5812 62.854 54.465 63.3801 54.465C63.7423 54.465 64.0737 54.5265 64.3744 54.6495C64.6751 54.7725 64.9313 54.957 65.1431 55.203V52.3945H66.4244ZM63.5339 58.975C63.8414 58.975 64.1181 58.9067 64.3641 58.77C64.6101 58.6265 64.8049 58.4249 64.9484 58.1652C65.0919 57.9056 65.1636 57.6049 65.1636 57.2632C65.1636 56.9216 65.0919 56.6209 64.9484 56.3612C64.8049 56.1016 64.6101 55.9034 64.3641 55.7667C64.1181 55.6232 63.8414 55.5515 63.5339 55.5515C63.2264 55.5515 62.9496 55.6232 62.7036 55.7667C62.4576 55.9034 62.2629 56.1016 62.1194 56.3612C61.9759 56.6209 61.9041 56.9216 61.9041 57.2632C61.9041 57.6049 61.9759 57.9056 62.1194 58.1652C62.2629 58.4249 62.4576 58.6265 62.7036 58.77C62.9496 58.9067 63.2264 58.975 63.5339 58.975ZM73.246 57.294C73.246 57.3828 73.2392 57.5092 73.2255 57.6732H68.9308C69.0059 58.0764 69.2007 58.3976 69.515 58.6367C69.8362 58.8691 70.2325 58.9852 70.704 58.9852C71.3053 58.9852 71.8008 58.7871 72.1903 58.3907L72.877 59.18C72.631 59.4738 72.3201 59.6959 71.9443 59.8462C71.5684 59.9966 71.1448 60.0718 70.6733 60.0718C70.0719 60.0718 69.5423 59.9522 69.0845 59.713C68.6267 59.4738 68.2713 59.1424 68.0185 58.7188C67.7725 58.2882 67.6495 57.8031 67.6495 57.2632C67.6495 56.7302 67.7691 56.2519 68.0083 55.8282C68.2543 55.3977 68.5925 55.0629 69.023 54.8238C69.4535 54.5846 69.9387 54.465 70.4785 54.465C71.0115 54.465 71.4864 54.5846 71.9033 54.8238C72.3269 55.0561 72.6549 55.3875 72.8873 55.818C73.1264 56.2417 73.246 56.7337 73.246 57.294ZM70.4785 55.49C70.0685 55.49 69.72 55.613 69.433 55.859C69.1528 56.0982 68.982 56.4193 68.9205 56.8225H72.0263C71.9716 56.4262 71.8042 56.105 71.524 55.859C71.2438 55.613 70.8953 55.49 70.4785 55.49ZM77.5825 54.465C78.2726 54.465 78.8261 54.6666 79.243 55.0697C79.6598 55.4729 79.8682 56.0708 79.8682 56.8635V60H78.587V57.0275C78.587 56.5492 78.4742 56.1904 78.2487 55.9512C78.0232 55.7052 77.7021 55.5822 77.2852 55.5822C76.8137 55.5822 76.4413 55.7257 76.168 56.0127C75.8946 56.2929 75.758 56.6995 75.758 57.2325V60H74.4767V54.5265H75.6965V55.2337C75.9083 54.9809 76.1748 54.7896 76.496 54.6597C76.8171 54.5299 77.1793 54.465 77.5825 54.465ZM84.7838 59.7027C84.6335 59.8257 84.449 59.918 84.2303 59.9795C84.0185 60.041 83.793 60.0718 83.5538 60.0718C82.9525 60.0718 82.4878 59.9146 82.1598 59.6002C81.8318 59.2859 81.6678 58.8281 81.6678 58.2267V55.5925H80.7658V54.5675H81.6678V53.317H82.9491V54.5675H84.4148V55.5925H82.9491V58.196C82.9491 58.4625 83.014 58.6675 83.1438 58.811C83.2737 58.9477 83.4616 59.016 83.7076 59.016C83.9946 59.016 84.2337 58.9408 84.4251 58.7905L84.7838 59.7027ZM91.7456 52.825C92.3674 52.825 92.9072 52.9275 93.3651 53.1325C93.8297 53.3375 94.1851 53.6313 94.4311 54.014C94.6771 54.3967 94.8001 54.8511 94.8001 55.3772C94.8001 55.8966 94.6771 56.351 94.4311 56.7405C94.1851 57.1232 93.8297 57.417 93.3651 57.622C92.9072 57.827 92.3674 57.9295 91.7456 57.9295H90.1261V60H88.7936V52.825H91.7456ZM91.6841 56.802C92.2649 56.802 92.7057 56.679 93.0063 56.433C93.307 56.187 93.4573 55.8351 93.4573 55.3772C93.4573 54.9194 93.307 54.5675 93.0063 54.3215C92.7057 54.0755 92.2649 53.9525 91.6841 53.9525H90.1261V56.802H91.6841ZM98.0487 54.465C98.855 54.465 99.47 54.6597 99.8937 55.0492C100.324 55.4319 100.539 56.0127 100.539 56.7917V60H99.3299V59.3337C99.1728 59.5729 98.9473 59.7574 98.6534 59.8872C98.3664 60.0102 98.0179 60.0718 97.6079 60.0718C97.1979 60.0718 96.8392 60.0034 96.5317 59.8667C96.2242 59.7232 95.985 59.5285 95.8142 59.2825C95.6502 59.0297 95.5682 58.7461 95.5682 58.4317C95.5682 57.9397 95.7493 57.5468 96.1114 57.253C96.4804 56.9523 97.0579 56.802 97.8437 56.802H99.2582V56.72C99.2582 56.3373 99.142 56.0435 98.9097 55.8385C98.6842 55.6335 98.3459 55.531 97.8949 55.531C97.5874 55.531 97.2834 55.5788 96.9827 55.6745C96.6889 55.7702 96.4394 55.9034 96.2344 56.0742L95.7322 55.1415C96.0192 54.9228 96.3643 54.7554 96.7674 54.6392C97.1706 54.5231 97.5977 54.465 98.0487 54.465ZM97.8744 59.139C98.1956 59.139 98.4792 59.0672 98.7252 58.9237C98.978 58.7734 99.1557 58.5616 99.2582 58.2882V57.6527H97.9359C97.1979 57.6527 96.8289 57.8953 96.8289 58.3805C96.8289 58.6128 96.9212 58.7973 97.1057 58.934C97.2902 59.0707 97.5464 59.139 97.8744 59.139ZM103.404 55.326C103.773 54.752 104.422 54.465 105.351 54.465V55.6847C105.242 55.6642 105.143 55.654 105.054 55.654C104.555 55.654 104.165 55.8009 103.885 56.0947C103.605 56.3817 103.465 56.7986 103.465 57.3452V60H102.184V54.5265H103.404V55.326ZM109.928 59.7027C109.778 59.8257 109.594 59.918 109.375 59.9795C109.163 60.041 108.938 60.0718 108.698 60.0718C108.097 60.0718 107.632 59.9146 107.304 59.6002C106.976 59.2859 106.812 58.8281 106.812 58.2267V55.5925H105.91V54.5675H106.812V53.317H108.094V54.5675H109.559V55.5925H108.094V58.196C108.094 58.4625 108.159 58.6675 108.288 58.811C108.418 58.9477 108.606 59.016 108.852 59.016C109.139 59.016 109.378 58.9408 109.57 58.7905L109.928 59.7027ZM114.088 54.465C114.778 54.465 115.332 54.6666 115.749 55.0697C116.165 55.4729 116.374 56.0708 116.374 56.8635V60H115.093V57.0275C115.093 56.5492 114.98 56.1904 114.754 55.9512C114.529 55.7052 114.208 55.5822 113.791 55.5822C113.319 55.5822 112.947 55.7257 112.674 56.0127C112.4 56.2929 112.264 56.6995 112.264 57.2325V60H110.982V54.5265H112.202V55.2337C112.414 54.9809 112.68 54.7896 113.002 54.6597C113.323 54.5299 113.685 54.465 114.088 54.465ZM123.195 57.294C123.195 57.3828 123.188 57.5092 123.174 57.6732H118.879C118.955 58.0764 119.149 58.3976 119.464 58.6367C119.785 58.8691 120.181 58.9852 120.653 58.9852C121.254 58.9852 121.749 58.7871 122.139 58.3907L122.826 59.18C122.58 59.4738 122.269 59.6959 121.893 59.8462C121.517 59.9966 121.093 60.0718 120.622 60.0718C120.021 60.0718 119.491 59.9522 119.033 59.713C118.575 59.4738 118.22 59.1424 117.967 58.7188C117.721 58.2882 117.598 57.8031 117.598 57.2632C117.598 56.7302 117.718 56.2519 117.957 55.8282C118.203 55.3977 118.541 55.0629 118.972 54.8238C119.402 54.5846 119.887 54.465 120.427 54.465C120.96 54.465 121.435 54.5846 121.852 54.8238C122.276 55.0561 122.604 55.3875 122.836 55.818C123.075 56.2417 123.195 56.7337 123.195 57.294ZM120.427 55.49C120.017 55.49 119.669 55.613 119.382 55.859C119.102 56.0982 118.931 56.4193 118.869 56.8225H121.975C121.92 56.4262 121.753 56.105 121.473 55.859C121.193 55.613 120.844 55.49 120.427 55.49ZM125.645 55.326C126.014 54.752 126.663 54.465 127.593 54.465V55.6847C127.483 55.6642 127.384 55.654 127.295 55.654C126.797 55.654 126.407 55.8009 126.127 56.0947C125.847 56.3817 125.707 56.7986 125.707 57.3452V60H124.425V54.5265H125.645V55.326Z" fill="white"/>
<g clip-path="url(#clip0)">
<path d="M19.7333 27.8954C20.1781 27.8954 20.623 27.9507 21.0598 28.0061C21.1213 28.0138 21.1836 28.0009 21.2368 27.9694C21.2901 27.9379 21.3312 27.8895 21.3537 27.8321C22.2445 25.5611 23.87 23.6503 25.9734 22.4016C28.0769 21.1529 30.5384 20.6375 32.9689 20.9367C35.3995 21.236 37.6607 22.3329 39.3951 24.0541C41.1295 25.7754 42.2383 28.0228 42.5464 30.4414C39.4113 30.8156 36.4319 32.0106 33.912 33.9047C31.9926 31.079 29.3032 28.8571 26.1594 27.5L26.2309 27.413C27.3435 26.059 28.93 25.1747 30.6712 24.9381C30.9873 24.8974 31.3056 24.8763 31.6244 24.8749C33.0461 24.8728 34.4336 25.3092 35.596 26.1242C36.6389 26.8529 37.4628 27.8506 37.979 29.0102C38.0055 29.0743 38.0558 29.1256 38.1195 29.1536C38.1831 29.1816 38.2551 29.184 38.3205 29.1605C38.7336 29.0261 39.1149 28.8995 39.5676 28.7968C39.6095 28.7869 39.6486 28.7675 39.6817 28.74C39.7147 28.7126 39.741 28.6779 39.7583 28.6386C39.7758 28.6029 39.7849 28.5637 39.7849 28.524C39.7849 28.4842 39.7758 28.445 39.7583 28.4093C39.0911 26.8309 37.9759 25.4806 36.5492 24.5238C35.1226 23.567 33.4465 23.0453 31.7264 23.0226C30.0062 22.9999 28.3169 23.4773 26.8653 24.3962C25.4137 25.3151 24.2629 26.6356 23.554 28.1958C23.5382 28.2306 23.5301 28.2683 23.5301 28.3065C23.5301 28.3447 23.5382 28.3824 23.554 28.4172C23.5706 28.4533 23.5948 28.4853 23.625 28.5112C23.6551 28.5372 23.6905 28.5563 23.7288 28.5674C27.8213 29.8321 31.2469 32.6538 33.2607 36.4191C33.282 36.4553 33.3106 36.4867 33.3448 36.5112C33.379 36.5357 33.418 36.5528 33.4593 36.5614H33.5069C33.5771 36.5618 33.6449 36.5364 33.6976 36.4902C36.5635 33.8258 40.303 32.2862 44.2224 32.1572C44.2941 32.1533 44.3617 32.1226 44.4117 32.0713C44.4617 32.0201 44.4906 31.9519 44.4925 31.8805C44.5076 28.8541 43.4465 25.92 41.4969 23.5977C39.5473 21.2754 36.8351 19.7147 33.8405 19.192C30.8458 18.6693 27.762 19.2183 25.135 20.7417C22.508 22.2652 20.5072 24.6649 19.4871 27.5158C19.4738 27.5565 19.4698 27.5996 19.4756 27.642C19.4813 27.6844 19.4966 27.725 19.5203 27.7607C19.5439 27.7964 19.5754 27.8263 19.6123 27.8483C19.6491 27.8702 19.6905 27.8836 19.7333 27.8874V27.8954Z" fill="white"/>
<path d="M47.0502 34.7033C47.0421 34.6453 47.0153 34.5915 46.9737 34.5501C46.9321 34.5088 46.8781 34.482 46.8199 34.474C46.1357 34.377 45.4457 34.3269 44.7546 34.3237C42.3475 34.3139 39.9787 34.924 37.8784 36.0947C35.7781 37.2654 34.0177 38.957 32.7682 41.0051L32.657 41.1791V40.9814C31.9735 37.8835 30.2485 35.1105 27.7672 33.1207C25.2859 31.1309 22.1968 30.0435 19.0105 30.0381C18.1337 30.0409 17.259 30.123 16.3972 30.2833C16.3404 30.2929 16.2882 30.3203 16.2481 30.3616C16.2081 30.4028 16.1824 30.4557 16.1748 30.5126C15.877 32.3554 15.9587 34.2393 16.4147 36.0498C16.8708 37.8603 17.6918 39.5597 18.8278 41.0447C19.9659 42.5289 21.3905 43.7719 23.0178 44.7006C24.6451 45.6294 26.4423 46.2252 28.3041 46.453C28.372 46.4606 28.4403 46.443 28.4959 46.4036C28.5516 46.3642 28.5908 46.3058 28.606 46.2395C28.9304 44.9184 28.9766 43.5447 28.7415 42.2049C28.5064 40.8651 27.9952 39.5883 27.2401 38.4549C26.485 37.3214 25.5023 36.3559 24.3539 35.619C23.2055 34.8822 21.9163 34.39 20.5674 34.1735C20.523 34.1665 20.4776 34.17 20.4348 34.1837C20.392 34.1975 20.3531 34.221 20.3211 34.2526C20.2903 34.2847 20.2678 34.3238 20.2553 34.3664C20.2429 34.4091 20.2409 34.4541 20.2497 34.4977C20.3439 34.9862 20.474 35.4672 20.6389 35.9368C20.656 35.9792 20.6829 36.017 20.7174 36.0472C20.7519 36.0774 20.793 36.0992 20.8375 36.1107C22.6483 36.5453 24.2526 37.5894 25.3788 39.0664C26.505 40.5433 27.0839 42.3623 27.0173 44.2154V44.3181C24.2824 43.6342 21.8732 42.0212 20.2054 39.7577C18.5377 37.4942 17.7162 34.7221 17.8826 31.92C18.24 31.92 18.5975 31.92 18.947 31.92C20.7059 31.9095 22.4458 32.2823 24.0447 33.012C25.6436 33.7418 27.0627 34.811 28.2025 36.1445C29.3424 37.478 30.1753 39.0436 30.6429 40.7315C31.1106 42.4194 31.2015 44.1887 30.9095 45.9154C30.6476 47.4621 30.6476 49.0416 30.9095 50.5884C30.9176 50.6463 30.9445 50.7001 30.9861 50.7415C31.0276 50.7829 31.0816 50.8096 31.1399 50.8177C31.5953 50.886 32.054 50.9308 32.5141 50.9521C32.5533 50.9522 32.5922 50.9437 32.6278 50.9274C32.6635 50.911 32.6952 50.887 32.7206 50.8572C32.7481 50.8264 32.7682 50.7897 32.7792 50.7499C32.7902 50.7102 32.7919 50.6684 32.7841 50.6279C32.4392 48.8636 32.4925 47.045 32.9401 45.3037C33.3878 43.5624 34.2186 41.9419 35.3726 40.5594C36.5265 39.1769 37.9747 38.0669 39.6124 37.3099C41.2501 36.5528 43.0364 36.1675 44.842 36.1819H45.3504C45.5334 38.9344 44.7672 41.6667 43.1784 43.9269C41.5895 46.1871 39.2733 47.8398 36.6128 48.6116V48.5088C36.5764 46.7396 37.1194 45.0066 38.1598 43.5716C39.2001 42.1366 40.6813 41.0776 42.3796 40.5544C42.4205 40.5414 42.4577 40.5188 42.4881 40.4885C42.5185 40.4583 42.5412 40.4212 42.5543 40.3805C42.7416 39.9055 42.8904 39.4163 42.9992 38.9177C43.0069 38.8723 43.0037 38.8257 42.9899 38.7817C42.9761 38.7377 42.952 38.6976 42.9197 38.6647C42.887 38.6321 42.8465 38.6085 42.802 38.596C42.7575 38.5836 42.7105 38.5827 42.6655 38.5935C40.051 39.1648 37.7679 40.7386 36.3109 42.974C35.5864 44.0904 35.0961 45.3412 34.8695 46.651C34.6429 47.9609 34.6847 49.3029 34.9924 50.5963C35.0094 50.6642 35.0516 50.7232 35.1106 50.7613C35.1695 50.7995 35.2408 50.8139 35.3101 50.8019C39.0055 50.2141 42.3191 48.1998 44.5322 45.1958C45.6328 43.7019 46.4224 42.0043 46.8548 40.2025C47.2872 38.4006 47.3536 36.531 47.0502 34.7033V34.7033Z" fill="white"/>
<path d="M62.8017 33.3828V22.8507C62.8017 22.8123 62.7941 22.7742 62.7793 22.7387C62.7645 22.7032 62.7429 22.671 62.7156 22.6438C62.6883 22.6167 62.6559 22.5951 62.6202 22.5804C62.5846 22.5657 62.5464 22.5581 62.5078 22.5581H61.0621C60.9848 22.5601 60.9112 22.5916 60.8565 22.646C60.8018 22.7005 60.7702 22.7737 60.7682 22.8507V29.3028L54.2944 22.4632C54.2762 22.4436 54.2541 22.4279 54.2295 22.417C54.2049 22.4061 54.1784 22.4003 54.1515 22.4H53.8417C53.8024 22.4 53.7635 22.4078 53.7273 22.423C53.6912 22.4382 53.6584 22.4604 53.631 22.4885C53.6036 22.5165 53.5821 22.5497 53.5678 22.5861C53.5535 22.6225 53.5467 22.6614 53.5478 22.7005V33.1851C53.5467 33.2242 53.5535 33.2631 53.5678 33.2995C53.5821 33.3359 53.6036 33.3691 53.631 33.3971C53.6584 33.4251 53.6912 33.4474 53.7273 33.4626C53.7635 33.4778 53.8024 33.4856 53.8417 33.4856H55.2715C55.3501 33.4835 55.4249 33.451 55.4798 33.3948C55.5347 33.3387 55.5654 33.2634 55.5654 33.1851V26.4721L62.0629 33.5884C62.0812 33.608 62.1033 33.6237 62.1279 33.6346C62.1525 33.6455 62.179 33.6513 62.2059 33.6516H62.4998C62.5752 33.6539 62.6485 33.6273 62.7047 33.5772C62.7609 33.5272 62.7956 33.4576 62.8017 33.3828V33.3828Z" fill="white"/>
<path d="M81.6034 47.0856V37.6763C81.6013 37.6064 81.572 37.54 81.5215 37.4913C81.4711 37.4426 81.4036 37.4153 81.3333 37.4153H80.0386C79.969 37.4153 79.9024 37.4428 79.8532 37.4918C79.8041 37.5407 79.7764 37.6071 79.7764 37.6763V43.4563L73.962 37.3363C73.9281 37.3026 73.8827 37.2828 73.8349 37.2809H73.5569C73.4866 37.283 73.42 37.3122 73.371 37.3624C73.3221 37.4126 73.2947 37.4798 73.2947 37.5498V46.9433C73.2947 47.0132 73.3221 47.0804 73.371 47.1306C73.42 47.1808 73.4866 47.21 73.5569 47.2121H74.8357C74.9074 47.2121 74.9761 47.1838 75.0267 47.1334C75.0774 47.0829 75.1058 47.0146 75.1058 46.9433V40.926L80.9282 47.2912C80.9434 47.3104 80.9627 47.326 80.9847 47.3369C81.0066 47.3479 81.0307 47.3538 81.0553 47.3544H81.3015C81.3396 47.3589 81.3781 47.3553 81.4147 47.3438C81.4512 47.3323 81.4849 47.3132 81.5134 47.2878C81.5419 47.2624 81.5647 47.2312 81.5803 47.1963C81.5958 47.1615 81.6036 47.1237 81.6034 47.0856V47.0856Z" fill="white"/>
<path d="M118.428 47.0856V37.6763C118.428 37.6071 118.401 37.5407 118.352 37.4918C118.302 37.4428 118.236 37.4153 118.166 37.4153H116.872C116.801 37.4153 116.734 37.4426 116.683 37.4913C116.633 37.54 116.604 37.6064 116.601 37.6763V43.4563L110.795 37.3363C110.761 37.3026 110.716 37.2828 110.668 37.2809H110.39C110.318 37.2809 110.249 37.3093 110.199 37.3597C110.148 37.4101 110.12 37.4785 110.12 37.5498V46.9433C110.12 47.0146 110.148 47.0829 110.199 47.1334C110.249 47.1838 110.318 47.2121 110.39 47.2121H111.669C111.74 47.2121 111.809 47.1838 111.86 47.1334C111.91 47.0829 111.939 47.0146 111.939 46.9433V40.926L117.769 47.2912C117.784 47.3104 117.804 47.326 117.826 47.3369C117.848 47.3479 117.872 47.3538 117.896 47.3544H118.158C118.23 47.3544 118.299 47.3261 118.349 47.2757C118.4 47.2253 118.428 47.1569 118.428 47.0856V47.0856Z" fill="white"/>
<path d="M84.4312 24.1316V22.8507C84.4292 22.7737 84.3976 22.7005 84.3429 22.646C84.2882 22.5916 84.2146 22.5601 84.1373 22.5581H76.7422C76.6635 22.5581 76.5879 22.5887 76.5315 22.6433C76.4751 22.698 76.4424 22.7724 76.4403 22.8507V24.1316C76.4403 24.2113 76.4721 24.2877 76.5287 24.3441C76.5853 24.4004 76.6621 24.4321 76.7422 24.4321H79.4111V33.1851C79.413 33.2629 79.4443 33.337 79.4988 33.3927C79.5533 33.4484 79.627 33.4816 79.705 33.4856H81.1665C81.246 33.4836 81.3216 33.4513 81.3778 33.3954C81.4339 33.3394 81.4664 33.2642 81.4684 33.1851V24.4321H84.1373C84.216 24.43 84.2907 24.3975 84.3456 24.3413C84.4005 24.2852 84.4313 24.21 84.4312 24.1316V24.1316Z" fill="white"/>
<path d="M96.0204 29.3502V22.8507C96.0164 22.773 95.9831 22.6997 95.9272 22.6455C95.8712 22.5912 95.7967 22.56 95.7186 22.5581H94.2332C94.1545 22.5581 94.0789 22.5887 94.0225 22.6433C93.9661 22.698 93.9334 22.7724 93.9314 22.8507V29.2553C93.9314 29.8572 93.6912 30.4344 93.2636 30.86C92.8361 31.2856 92.2563 31.5246 91.6516 31.5246C91.047 31.5246 90.4672 31.2856 90.0396 30.86C89.6121 30.4344 89.3719 29.8572 89.3719 29.2553V22.8507C89.3698 22.7724 89.3371 22.698 89.2808 22.6433C89.2244 22.5887 89.1488 22.5581 89.0701 22.5581H87.5847C87.5066 22.56 87.4321 22.5912 87.3761 22.6455C87.3201 22.6997 87.2868 22.773 87.2828 22.8507V29.3502C87.2828 30.5036 87.7431 31.6098 88.5624 32.4253C89.3817 33.2409 90.493 33.6991 91.6516 33.6991C92.8103 33.6991 93.9215 33.2409 94.7408 32.4253C95.5602 31.6098 96.0204 30.5036 96.0204 29.3502V29.3502Z" fill="white"/>
<path d="M118.134 22.5581H111.78C111.703 22.5601 111.629 22.5916 111.574 22.646C111.52 22.7005 111.488 22.7737 111.486 22.8507V33.1851C111.486 33.2634 111.517 33.3387 111.572 33.3948C111.626 33.4509 111.701 33.4835 111.78 33.4856H118.134C118.174 33.4856 118.213 33.4778 118.249 33.4626C118.285 33.4474 118.318 33.4251 118.345 33.3971C118.373 33.3691 118.394 33.3359 118.408 33.2995C118.423 33.2631 118.429 33.2242 118.428 33.1851V31.9042C118.428 31.8658 118.421 31.8277 118.406 31.7922C118.391 31.7567 118.37 31.7245 118.342 31.6973C118.315 31.6701 118.283 31.6486 118.247 31.6339C118.211 31.6192 118.173 31.6116 118.134 31.6116H113.496V28.8758H117.364C117.403 28.8769 117.442 28.8701 117.479 28.8558C117.515 28.8416 117.549 28.8202 117.577 28.793C117.605 28.7657 117.627 28.7331 117.643 28.6971C117.658 28.661 117.666 28.6223 117.666 28.5833V27.2865C117.664 27.2074 117.631 27.1322 117.575 27.0763C117.519 27.0203 117.443 26.988 117.364 26.986H113.496V24.4321H118.134C118.174 24.4321 118.213 24.4243 118.249 24.4091C118.285 24.3939 118.318 24.3716 118.345 24.3436C118.373 24.3156 118.394 24.2824 118.408 24.246C118.423 24.2096 118.429 24.1707 118.428 24.1316V22.8507C118.428 22.8123 118.421 22.7742 118.406 22.7387C118.391 22.7032 118.37 22.671 118.342 22.6438C118.315 22.6167 118.283 22.5951 118.247 22.5804C118.211 22.5657 118.173 22.5581 118.134 22.5581Z" fill="white"/>
<path d="M127.698 31.9674H122.043C121.868 31.9674 121.741 32.0702 121.741 32.1967V33.2642C121.741 33.3828 121.868 33.4856 122.043 33.4856H127.698C127.873 33.4856 128 33.3828 128 33.2642V32.1967C128 32.0702 127.873 31.9674 127.698 31.9674Z" fill="white"/>
<path d="M56.8998 41.4163C55.7639 40.9577 55.2397 40.507 55.2397 39.8349C55.2736 39.5414 55.4231 39.2732 55.6555 39.0894C55.8878 38.9056 56.1839 38.8211 56.4788 38.8544C57.1827 38.9646 57.8514 39.2352 58.4329 39.6451C58.5205 39.6866 58.621 39.6925 58.7129 39.6615C58.8049 39.6305 58.8811 39.565 58.9254 39.4791L59.4576 38.6884C59.5054 38.6162 59.5238 38.5286 59.509 38.4434C59.4943 38.3582 59.4475 38.2818 59.3781 38.2298C58.5571 37.6362 57.5728 37.3078 56.5583 37.2888C54.3262 37.2888 53.381 38.7279 53.381 39.9772C53.381 41.6298 54.7075 42.4679 56.0261 42.9977C57.2096 43.48 57.8133 43.9623 57.8133 44.6819C57.8013 44.8364 57.7586 44.9871 57.6876 45.1251C57.6166 45.2631 57.5188 45.3857 57.3998 45.4858C57.2808 45.5858 57.143 45.6613 56.9945 45.7079C56.8459 45.7545 56.6896 45.7713 56.5344 45.7572C55.7626 45.6502 55.0304 45.351 54.4056 44.8874C54.3685 44.8603 54.3259 44.8413 54.2808 44.8318C54.2358 44.8222 54.1892 44.8223 54.1441 44.832C54.0991 44.8418 54.0566 44.8609 54.0195 44.8882C53.9824 44.9154 53.9516 44.9502 53.929 44.9902L53.4207 45.8521C53.3015 46.0814 53.3651 46.1526 53.4922 46.2791C54.3534 47.0121 55.4573 47.4009 56.59 47.3702C58.5838 47.3544 59.8547 46.034 59.8547 44.5791C59.8547 42.7763 58.2661 41.9619 56.8998 41.4163Z" fill="white"/>
<path d="M69.8156 37.4153H68.4811C68.4108 37.4153 68.3433 37.4426 68.2929 37.4913C68.2425 37.54 68.2131 37.6064 68.211 37.6763V43.4167C68.2285 43.6948 68.1885 43.9734 68.0936 44.2355C67.9987 44.4976 67.8508 44.7376 67.6592 44.9406C67.4675 45.1436 67.2362 45.3054 66.9793 45.416C66.7224 45.5266 66.4455 45.5837 66.1657 45.5837C65.8858 45.5837 65.6089 45.5266 65.352 45.416C65.0952 45.3054 64.8638 45.1436 64.6721 44.9406C64.4805 44.7376 64.3327 44.4976 64.2377 44.2355C64.1428 43.9734 64.1029 43.6948 64.1203 43.4167V37.6763C64.1205 37.6392 64.1129 37.6025 64.0978 37.5685C64.0826 37.5346 64.0604 37.5043 64.0326 37.4796C64.0048 37.4549 63.972 37.4364 63.9365 37.4253C63.9009 37.4143 63.8634 37.4108 63.8264 37.4153H62.5157C62.4474 37.4191 62.383 37.4478 62.3346 37.496C62.2862 37.5441 62.2574 37.6083 62.2536 37.6763V43.5037C62.2536 44.5376 62.6662 45.5291 63.4006 46.2601C64.135 46.9912 65.131 47.4019 66.1696 47.4019C67.2082 47.4019 68.2043 46.9912 68.9387 46.2601C69.6731 45.5291 70.0857 44.5376 70.0857 43.5037V37.6763C70.0817 37.607 70.0517 37.5417 70.0017 37.4934C69.9517 37.4451 69.8853 37.4172 69.8156 37.4153V37.4153Z" fill="white"/>
<path d="M87.8706 41.4163C86.7268 40.9577 86.2105 40.507 86.2105 39.8349C86.2444 39.5414 86.3939 39.2732 86.6262 39.0894C86.8586 38.9056 87.1547 38.8211 87.4496 38.8544C88.1535 38.9646 88.8222 39.2352 89.4037 39.6451C89.4913 39.6866 89.5918 39.6925 89.6837 39.6615C89.7757 39.6305 89.8519 39.565 89.8961 39.4791L90.4283 38.6884C90.4753 38.6153 90.4925 38.527 90.4762 38.4418C90.46 38.3565 90.4116 38.2807 90.341 38.2298C89.5241 37.634 88.5416 37.3053 87.5291 37.2888C85.297 37.2888 84.3517 38.7279 84.3517 39.9772C84.3517 41.6298 85.6703 42.4679 86.9969 42.9977C88.1804 43.48 88.7841 43.9623 88.7841 44.6819C88.7721 44.8364 88.7294 44.9871 88.6584 45.1251C88.5874 45.2631 88.4896 45.3857 88.3706 45.4858C88.2516 45.5858 88.1138 45.6613 87.9653 45.7079C87.8167 45.7545 87.6603 45.7713 87.5052 45.7572C86.7334 45.6502 86.0012 45.351 85.3764 44.8874C85.3393 44.8603 85.2967 44.8413 85.2516 44.8318C85.2065 44.8222 85.1599 44.8223 85.1149 44.832C85.0698 44.8418 85.0274 44.8609 84.9903 44.8882C84.9532 44.9154 84.9224 44.9502 84.8998 44.9902L84.3915 45.8521C84.2644 46.0814 84.3359 46.1526 84.463 46.2791C85.3242 47.0121 86.4281 47.4009 87.5608 47.3702C89.5387 47.3702 90.7937 46.034 90.7937 44.5949C90.8335 42.7763 89.2448 41.9619 87.8706 41.4163Z" fill="white"/>
<path d="M101.414 37.4153H100.119C100.049 37.4153 99.9814 37.4426 99.9309 37.4913C99.8805 37.54 99.8511 37.6064 99.8491 37.6763V42.1437C98.7291 41.3056 97.2516 41.0605 95.4485 41.0605H95.2658V37.6763C95.2658 37.6071 95.2382 37.5407 95.189 37.4918C95.1399 37.4428 95.0732 37.4153 95.0037 37.4153H93.693C93.6228 37.4153 93.5553 37.4426 93.5048 37.4913C93.4544 37.54 93.425 37.6064 93.423 37.6763V46.9433C93.423 46.9786 93.43 47.0135 93.4435 47.0461C93.4571 47.0787 93.477 47.1084 93.5021 47.1334C93.5272 47.1583 93.5569 47.1781 93.5897 47.1916C93.6225 47.2051 93.6576 47.2121 93.693 47.2121H95.0037C95.0739 47.21 95.1406 47.1808 95.1895 47.1306C95.2385 47.0804 95.2658 47.0132 95.2658 46.9433V42.7051C97.2913 42.7051 98.7291 42.9898 99.579 44.073C99.7508 44.301 99.8429 44.5787 99.8411 44.8637V46.9195C99.8411 46.9548 99.8481 46.9898 99.8617 47.0224C99.8753 47.055 99.8952 47.0847 99.9202 47.1096C99.9453 47.1346 99.9751 47.1544 100.008 47.1679C100.041 47.1814 100.076 47.1884 100.111 47.1884H101.406C101.441 47.1884 101.477 47.1814 101.509 47.1679C101.542 47.1544 101.572 47.1346 101.597 47.1096C101.622 47.0847 101.642 47.055 101.655 47.0224C101.669 46.9898 101.676 46.9548 101.676 46.9195V37.6763C101.674 37.6077 101.646 37.5425 101.597 37.494C101.548 37.4455 101.483 37.4173 101.414 37.4153V37.4153Z" fill="white"/>
<path d="M106.561 37.4153H105.258C105.109 37.4153 104.988 37.5357 104.988 37.6842V46.9432C104.988 47.0917 105.109 47.2121 105.258 47.2121H106.561C106.71 47.2121 106.831 47.0917 106.831 46.9432V37.6842C106.831 37.5357 106.71 37.4153 106.561 37.4153Z" fill="white"/>
<path d="M127.73 37.4153H122.011C121.941 37.4153 121.873 37.4426 121.823 37.4913C121.772 37.54 121.743 37.6064 121.741 37.6763V46.9433C121.741 47.0146 121.769 47.0829 121.82 47.1334C121.87 47.1838 121.939 47.2121 122.011 47.2121H127.73C127.802 47.2121 127.87 47.1838 127.921 47.1334C127.972 47.0829 128 47.0146 128 46.9433V45.7967C128 45.7254 127.972 45.6571 127.921 45.6066C127.87 45.5562 127.802 45.5279 127.73 45.5279H123.568V43.0846H127.047C127.117 43.0826 127.184 43.0534 127.233 43.0032C127.282 42.953 127.309 42.8858 127.309 42.8158V41.6535C127.307 41.5849 127.279 41.5197 127.23 41.4712C127.181 41.4227 127.116 41.3945 127.047 41.3926H123.568V39.0916H127.73C127.8 39.0917 127.868 39.0644 127.918 39.0157C127.969 38.967 127.998 38.9006 128 38.8307V37.6763C127.998 37.6064 127.969 37.54 127.918 37.4913C127.868 37.4426 127.8 37.4153 127.73 37.4153V37.4153Z" fill="white"/>
<path d="M73.6681 33.2405C73.7036 33.3184 73.7622 33.3837 73.836 33.4275C73.9098 33.4713 73.9954 33.4916 74.0811 33.4856H75.4474C75.4974 33.4891 75.5474 33.4791 75.5922 33.4566C75.6369 33.4341 75.6748 33.3999 75.7016 33.3578C75.7285 33.3157 75.7434 33.2671 75.7448 33.2172C75.7462 33.1673 75.734 33.118 75.7095 33.0744L70.88 22.574C70.8597 22.52 70.8225 22.4739 70.7738 22.4426C70.7252 22.4113 70.6677 22.3963 70.6099 22.4H70.459C70.4017 22.3987 70.3452 22.4146 70.2971 22.4456C70.2489 22.4766 70.2112 22.5213 70.1889 22.574L65.3118 33.0744C65.2868 33.1186 65.2745 33.1687 65.2762 33.2194C65.2778 33.27 65.2935 33.3193 65.3213 33.3617C65.3492 33.4041 65.3882 33.4381 65.4342 33.4599C65.4801 33.4818 65.5312 33.4907 65.5818 33.4856H66.9401C67.0406 33.488 67.1393 33.4587 67.2221 33.4018C67.3048 33.345 67.3674 33.2637 67.4009 33.1693L68.1952 31.4851L68.4096 31.0107C68.6733 30.9794 68.9385 30.9636 69.204 30.9633C71.3963 30.9633 72.8817 31.8568 73.676 33.2484L73.6681 33.2405ZM69.1087 29.3581L70.4749 26.3219H70.5226L72.1112 29.7535L72.1589 29.8484C71.238 29.5133 70.2638 29.3472 69.2834 29.3581H69.1087Z" fill="white"/>
<path d="M99.571 22.8507C99.5731 22.7724 99.6058 22.698 99.6622 22.6433C99.7186 22.5887 99.7942 22.5581 99.8729 22.5581H104.337C105.237 22.5518 106.103 22.9012 106.745 23.5298C107.387 24.1583 107.752 25.0145 107.761 25.9107C107.741 26.6108 107.508 27.2885 107.092 27.8535C106.677 28.4185 106.098 28.844 105.433 29.0735L107.586 33.027C107.616 33.0728 107.632 33.126 107.633 33.1806C107.634 33.2352 107.62 33.289 107.592 33.3359C107.563 33.3828 107.523 33.421 107.474 33.446C107.425 33.4711 107.37 33.482 107.316 33.4777H105.687C105.636 33.4807 105.584 33.4688 105.539 33.4436C105.494 33.4184 105.457 33.3808 105.433 33.3354L103.352 29.2H101.612V33.1535C101.61 33.2326 101.578 33.3078 101.522 33.3637C101.466 33.4197 101.39 33.452 101.311 33.454H99.8729C99.7928 33.454 99.7161 33.4223 99.6595 33.366C99.6028 33.3096 99.571 33.2332 99.571 33.1535V22.8507ZM104.178 27.5395C104.599 27.5395 105.004 27.3729 105.301 27.0764C105.599 26.7798 105.767 26.3776 105.767 25.9581C105.748 25.5512 105.573 25.167 105.277 24.8857C104.981 24.6043 104.587 24.4475 104.178 24.4479H101.628V27.5554L104.178 27.5395Z" fill="white"/>
<path d="M121.812 29.5637L122.257 28.773C122.285 28.7322 122.321 28.6972 122.362 28.6703C122.404 28.6433 122.45 28.6249 122.499 28.6161C122.548 28.6072 122.598 28.6082 122.646 28.6188C122.695 28.6295 122.741 28.6497 122.781 28.6781C123.381 28.9978 124.047 29.1763 124.727 29.2C125.355 29.2 125.76 28.9549 125.76 28.52C125.76 28.0851 125.299 27.7293 124.171 27.2153C122.877 26.6698 121.788 25.9107 121.788 24.5902C121.788 23.586 122.654 22.3842 124.664 22.3842C125.531 22.3686 126.387 22.5842 127.142 23.0088C127.238 23.0666 127.308 23.158 127.339 23.265C127.37 23.3719 127.359 23.4866 127.309 23.586L126.928 24.266C126.87 24.3524 126.783 24.4161 126.683 24.4463C126.583 24.4766 126.476 24.4716 126.38 24.4321C125.838 24.1911 125.256 24.0491 124.664 24.013C123.949 24.013 123.719 24.3135 123.719 24.614C123.719 25.1279 124.243 25.3493 125.061 25.6893C126.594 26.3298 127.849 26.9544 127.849 28.4567C127.849 29.6981 126.618 30.8288 124.751 30.8288C123.765 30.8719 122.792 30.5944 121.979 30.0381C121.934 30.0206 121.894 29.9938 121.861 29.9594C121.828 29.925 121.802 29.8839 121.787 29.8389C121.771 29.7939 121.765 29.746 121.769 29.6985C121.774 29.651 121.788 29.6051 121.812 29.5637Z" fill="white"/>
</g>
<defs>
<clipPath id="clip0">
<rect width="112" height="34" fill="white" transform="translate(16 19)"/>
</clipPath>
</defs>
</svg>
